<?xml version="1.0" encoding="UTF-8" standalone="no"?>
<!DOCTYPE svg PUBLIC "-//W3C//DTD SVG 1.1//EN"
 "http://www.w3.org/Graphics/SVG/1.1/DTD/svg11.dtd">
<!-- Generated by graphviz version 2.40.1 (20161225.0304)
 -->
<!-- Title: G Pages: 1 -->
<svg width="830pt" height="332pt"
 viewBox="0.00 0.00 829.93 332.00" xmlns="http://www.w3.org/2000/svg" xmlns:xlink="http://www.w3.org/1999/xlink">
<g id="graph0" class="graph" transform="scale(1 1) rotate(0) translate(4 328)">
<title>G</title>
<polygon fill="#ffffff" stroke="transparent" points="-4,4 -4,-328 825.9284,-328 825.9284,4 -4,4"/>
<!-- PClassifier -->
<g id="node1" class="node">
<title>PClassifier</title>
<ellipse fill="none" stroke="#000000" cx="622.0488" cy="-306" rx="53.3206" ry="18"/>
<text text-anchor="middle" x="622.0488" y="-301.8" font-family="Times,serif" font-size="14.00" fill="#000000">PClassifier</text>
</g>
<!-- Statement -->
<g id="node2" class="node">
<title>Statement</title>
<ellipse fill="none" stroke="#000000" cx="622.0488" cy="-234" rx="49.8136" ry="18"/>
<text text-anchor="middle" x="622.0488" y="-229.8" font-family="Times,serif" font-size="14.00" fill="#000000">Statement</text>
</g>
<!-- PClassifier&#45;&gt;Statement -->
<g id="edge1" class="edge">
<title>PClassifier&#45;&gt;Statement</title>
<path fill="none" stroke="#000000" d="M622.0488,-287.8314C622.0488,-280.131 622.0488,-270.9743 622.0488,-262.4166"/>
<polygon fill="#000000" stroke="#000000" points="625.5489,-262.4132 622.0488,-252.4133 618.5489,-262.4133 625.5489,-262.4132"/>
</g>
<!-- Classifier -->
<g id="node3" class="node">
<title>Classifier</title>
<ellipse fill="none" stroke="#000000" cx="385.0488" cy="-162" rx="48.0839" ry="18"/>
<text text-anchor="middle" x="385.0488" y="-157.8" font-family="Times,serif" font-size="14.00" fill="#000000">Classifier</text>
</g>
<!-- Statement&#45;&gt;Classifier -->
<g id="edge2" class="edge">
<title>Statement&#45;&gt;Classifier</title>
<path fill="none" stroke="#000000" d="M583.9707,-222.432C542.7319,-209.9037 476.8896,-189.901 432.359,-176.3727"/>
<polygon fill="#000000" stroke="#000000" points="433.2266,-172.9784 422.641,-173.4204 431.1918,-179.6762 433.2266,-172.9784"/>
</g>
<!-- Train -->
<g id="node4" class="node">
<title>Train</title>
<ellipse fill="none" stroke="#000000" cx="530.0488" cy="-162" rx="31.8993" ry="18"/>
<text text-anchor="middle" x="530.0488" y="-157.8" font-family="Times,serif" font-size="14.00" fill="#000000">Train</text>
</g>
<!-- Statement&#45;&gt;Train -->
<g id="edge3" class="edge">
<title>Statement&#45;&gt;Train</title>
<path fill="none" stroke="#000000" d="M601.1726,-217.6621C588.0546,-207.3958 571.0045,-194.0522 556.8866,-183.0035"/>
<polygon fill="#000000" stroke="#000000" points="558.9971,-180.2107 548.9649,-176.8039 554.6829,-185.7233 558.9971,-180.2107"/>
</g>
<!-- Execute -->
<g id="node5" class="node">
<title>Execute</title>
<ellipse fill="none" stroke="#000000" cx="622.0488" cy="-162" rx="42.2738" ry="18"/>
<text text-anchor="middle" x="622.0488" y="-157.8" font-family="Times,serif" font-size="14.00" fill="#000000">Execute</text>
</g>
<!-- Statement&#45;&gt;Execute -->
<g id="edge4" class="edge">
<title>Statement&#45;&gt;Execute</title>
<path fill="none" stroke="#000000" d="M622.0488,-215.8314C622.0488,-208.131 622.0488,-198.9743 622.0488,-190.4166"/>
<polygon fill="#000000" stroke="#000000" points="625.5489,-190.4132 622.0488,-180.4133 618.5489,-190.4133 625.5489,-190.4132"/>
</g>
<!-- Save -->
<g id="node6" class="node">
<title>Save</title>
<ellipse fill="none" stroke="#000000" cx="712.0488" cy="-162" rx="29.6147" ry="18"/>
<text text-anchor="middle" x="712.0488" y="-157.8" font-family="Times,serif" font-size="14.00" fill="#000000">Save</text>
</g>
<!-- Statement&#45;&gt;Save -->
<g id="edge5" class="edge">
<title>Statement&#45;&gt;Save</title>
<path fill="none" stroke="#000000" d="M642.9228,-217.3008C655.7376,-207.049 672.2583,-193.8324 685.9354,-182.8907"/>
<polygon fill="#000000" stroke="#000000" points="688.403,-185.3989 694.0253,-176.4188 684.0301,-179.9328 688.403,-185.3989"/>
</g>
<!-- Load -->
<g id="node7" class="node">
<title>Load</title>
<ellipse fill="none" stroke="#000000" cx="791.0488" cy="-162" rx="30.7597" ry="18"/>
<text text-anchor="middle" x="791.0488" y="-157.8" font-family="Times,serif" font-size="14.00" fill="#000000">Load</text>
</g>
<!-- Statement&#45;&gt;Load -->
<g id="edge6" class="edge">
<title>Statement&#45;&gt;Load</title>
<path fill="none" stroke="#000000" d="M655.0235,-220.4777C681.1488,-209.6966 718.5345,-194.1181 751.0488,-180 753.092,-179.1128 755.1904,-178.1934 757.3048,-177.2607"/>
<polygon fill="#000000" stroke="#000000" points="758.8418,-180.4077 766.5556,-173.145 755.9963,-174.0122 758.8418,-180.4077"/>
</g>
<!-- Model -->
<g id="node8" class="node">
<title>Model</title>
<ellipse fill="none" stroke="#000000" cx="290.0488" cy="-90" rx="36.4975" ry="18"/>
<text text-anchor="middle" x="290.0488" y="-85.8" font-family="Times,serif" font-size="14.00" fill="#000000">Model</text>
</g>
<!-- Classifier&#45;&gt;Model -->
<g id="edge7" class="edge">
<title>Classifier&#45;&gt;Model</title>
<path fill="none" stroke="#000000" d="M363.4918,-145.6621C350.1291,-135.5346 332.8151,-122.4123 318.3544,-111.4526"/>
<polygon fill="#000000" stroke="#000000" points="320.3051,-108.5394 310.2213,-105.2886 316.0769,-114.1182 320.3051,-108.5394"/>
</g>
<!-- Evaluation -->
<g id="node13" class="node">
<title>Evaluation</title>
<ellipse fill="none" stroke="#000000" cx="632.0488" cy="-90" rx="52.7488" ry="18"/>
<text text-anchor="middle" x="632.0488" y="-85.8" font-family="Times,serif" font-size="14.00" fill="#000000">Evaluation</text>
</g>
<!-- Train&#45;&gt;Evaluation -->
<g id="edge12" class="edge">
<title>Train&#45;&gt;Evaluation</title>
<path fill="none" stroke="#000000" d="M550.2007,-147.7751C564.5384,-137.6544 584.0865,-123.8558 600.4831,-112.2817"/>
<polygon fill="#000000" stroke="#000000" points="602.5746,-115.0895 608.7259,-106.4632 598.5378,-109.3707 602.5746,-115.0895"/>
</g>
<!-- DecisionTree -->
<g id="node9" class="node">
<title>DecisionTree</title>
<ellipse fill="none" stroke="#000000" cx="63.0488" cy="-18" rx="63.0977" ry="18"/>
<text text-anchor="middle" x="63.0488" y="-13.8" font-family="Times,serif" font-size="14.00" fill="#000000">DecisionTree</text>
</g>
<!-- Model&#45;&gt;DecisionTree -->
<g id="edge8" class="edge">
<title>Model&#45;&gt;DecisionTree</title>
<path fill="none" stroke="#000000" d="M259.4346,-80.2898C222.5316,-68.5849 159.9247,-48.7272 115.3216,-34.5799"/>
<polygon fill="#000000" stroke="#000000" points="116.1196,-31.1612 105.5294,-31.474 114.0032,-37.8337 116.1196,-31.1612"/>
</g>
<!-- SVC -->
<g id="node10" class="node">
<title>SVC</title>
<ellipse fill="none" stroke="#000000" cx="174.0488" cy="-18" rx="29.6339" ry="18"/>
<text text-anchor="middle" x="174.0488" y="-13.8" font-family="Times,serif" font-size="14.00" fill="#000000">SVC</text>
</g>
<!-- Model&#45;&gt;SVC -->
<g id="edge9" class="edge">
<title>Model&#45;&gt;SVC</title>
<path fill="none" stroke="#000000" d="M267.1309,-75.7751C248.9229,-64.4736 223.3261,-48.5859 203.5818,-36.3308"/>
<polygon fill="#000000" stroke="#000000" points="205.3117,-33.2852 194.9695,-30.9852 201.6201,-39.2327 205.3117,-33.2852"/>
</g>
<!-- RandomForest -->
<g id="node11" class="node">
<title>RandomForest</title>
<ellipse fill="none" stroke="#000000" cx="290.0488" cy="-18" rx="67.7972" ry="18"/>
<text text-anchor="middle" x="290.0488" y="-13.8" font-family="Times,serif" font-size="14.00" fill="#000000">RandomForest</text>
</g>
<!-- Model&#45;&gt;RandomForest -->
<g id="edge10" class="edge">
<title>Model&#45;&gt;RandomForest</title>
<path fill="none" stroke="#000000" d="M290.0488,-71.8314C290.0488,-64.131 290.0488,-54.9743 290.0488,-46.4166"/>
<polygon fill="#000000" stroke="#000000" points="293.5489,-46.4132 290.0488,-36.4133 286.5489,-46.4133 293.5489,-46.4132"/>
</g>
<!-- MLPClassifier -->
<g id="node12" class="node">
<title>MLPClassifier</title>
<ellipse fill="none" stroke="#000000" cx="444.0488" cy="-18" rx="67.7876" ry="18"/>
<text text-anchor="middle" x="444.0488" y="-13.8" font-family="Times,serif" font-size="14.00" fill="#000000">MLPClassifier</text>
</g>
<!-- Model&#45;&gt;MLPClassifier -->
<g id="edge11" class="edge">
<title>Model&#45;&gt;MLPClassifier</title>
<path fill="none" stroke="#000000" d="M316.5224,-77.6228C339.7545,-66.761 373.9736,-50.7625 401.1176,-38.0717"/>
<polygon fill="#000000" stroke="#000000" points="402.8177,-41.1406 410.3941,-33.7347 399.8529,-34.7994 402.8177,-41.1406"/>
</g>
<!-- Accuracy -->
<g id="node14" class="node">
<title>Accuracy</title>
<ellipse fill="none" stroke="#000000" cx="578.0488" cy="-18" rx="48.053" ry="18"/>
<text text-anchor="middle" x="578.0488" y="-13.8" font-family="Times,serif" font-size="14.00" fill="#000000">Accuracy</text>
</g>
<!-- Evaluation&#45;&gt;Accuracy -->
<g id="edge13" class="edge">
<title>Evaluation&#45;&gt;Accuracy</title>
<path fill="none" stroke="#000000" d="M618.7005,-72.2022C612.1783,-63.506 604.2139,-52.8867 597.0686,-43.3598"/>
<polygon fill="#000000" stroke="#000000" points="599.8573,-41.2446 591.0572,-35.3446 594.2573,-45.4446 599.8573,-41.2446"/>
</g>
<!-- F1Score -->
<g id="node15" class="node">
<title>F1Score</title>
<ellipse fill="none" stroke="#000000" cx="687.0488" cy="-18" rx="43.4377" ry="18"/>
<text text-anchor="middle" x="687.0488" y="-13.8" font-family="Times,serif" font-size="14.00" fill="#000000">F1Score</text>
</g>
<!-- Evaluation&#45;&gt;F1Score -->
<g id="edge14" class="edge">
<title>Evaluation&#45;&gt;F1Score</title>
<path fill="none" stroke="#000000" d="M645.3628,-72.5708C652.051,-63.8153 660.2808,-53.0418 667.6562,-43.3867"/>
<polygon fill="#000000" stroke="#000000" points="670.5684,-45.3401 673.8575,-35.2687 665.0057,-41.0908 670.5684,-45.3401"/>
</g>
<!-- Recall -->
<g id="node16" class="node">
<title>Recall</title>
<ellipse fill="none" stroke="#000000" cx="784.0488" cy="-18" rx="35.9096" ry="18"/>
<text text-anchor="middle" x="784.0488" y="-13.8" font-family="Times,serif" font-size="14.00" fill="#000000">Recall</text>
</g>
<!-- Evaluation&#45;&gt;Recall -->
<g id="edge15" class="edge">
<title>Evaluation&#45;&gt;Recall</title>
<path fill="none" stroke="#000000" d="M663.1751,-75.256C688.0834,-63.4573 723.0106,-46.9128 748.9186,-34.6406"/>
<polygon fill="#000000" stroke="#000000" points="750.4813,-37.7733 758.0203,-30.3293 747.4846,-31.4471 750.4813,-37.7733"/>
</g>
</g>
</svg>
